<mxfile host="app.diagrams.net" modified="2024-07-04T15:46:49.163Z" agent="Mozilla/5.0 (Macintosh; Intel Mac OS X 10_15_7) AppleWebKit/537.36 (KHTML, like Gecko) Chrome/126.0.0.0 Safari/537.36" version="24.6.4" etag="T9Mo3_wUAmM4EEF0fyyD" type="github">
  <diagram name="Page-1" id="Noe7aaHp9w96jVxoUmcG">
    <mxGraphModel>
      <root>
        <mxCell id="0" />
        <mxCell id="1" parent="0" />
      </root>
    </mxGraphModel>
  </diagram>
</mxfile>
